<?xml version="1.0" standalone="no"?>
<!DOCTYPE svg PUBLIC "-//W3C//DTD SVG 20010904//EN"
 "http://www.w3.org/TR/2001/REC-SVG-20010904/DTD/svg10.dtd">
<svg version="1.0" xmlns="http://www.w3.org/2000/svg"
 width="410.000000pt" height="395.000000pt" viewBox="0 0 410.000000 395.000000"
 preserveAspectRatio="xMidYMid meet">

<g transform="translate(0.000000,395.000000) scale(0.100000,-0.100000)"
fill="#000000" stroke="none">
<path d="M2861 2674 c0 -11 3 -14 6 -6 3 7 2 16 -1 19 -3 4 -6 -2 -5 -13z"/>
<path d="M3438 2553 c12 -2 32 -2 45 0 12 2 2 4 -23 4 -25 0 -35 -2 -22 -4z"/>
<path d="M3265 2531 c-82 -24 -199 -81 -265 -131 -52 -38 -195 -172 -191 -178
1 -1 -14 -28 -33 -60 -19 -31 -42 -76 -51 -99 -10 -24 -21 -43 -25 -43 -5 0
-9 -18 -8 -39 0 -45 5 -48 84 -57 l54 -7 15 36 c51 124 147 223 270 282 113
54 161 65 277 65 161 0 295 -53 407 -160 72 -69 82 -70 171 -27 34 17 44 28
42 42 -6 36 -63 143 -95 177 -18 19 -25 25 -15 14 54 -68 108 -190 91 -207 -5
-5 -33 -18 -63 -29 l-53 -20 -33 32 c-18 18 -30 36 -27 42 3 5 1 6 -4 3 -6 -4
-28 7 -49 24 -101 81 -227 122 -369 123 -245 0 -462 -132 -553 -336 -23 -53
-31 -55 -99 -35 l-41 12 19 24 c12 15 17 31 13 46 -6 24 16 49 24 27 2 -7 8
-12 13 -12 6 0 5 8 -1 20 -13 24 -2 49 12 29 7 -10 8 -4 4 16 -5 21 -4 26 3
15 11 -16 12 -15 29 22 8 21 16 26 29 21 16 -6 16 -5 4 10 -12 15 -12 17 3 11
9 -3 16 -1 16 5 0 6 6 11 14 11 8 0 17 9 21 19 3 10 21 29 40 42 19 13 35 27
35 32 0 4 6 7 13 7 17 0 59 44 50 53 -3 4 -1 7 6 7 6 0 31 20 54 45 24 25 48
45 54 45 6 0 13 7 17 15 3 8 10 15 17 15 6 0 23 8 37 19 15 10 56 26 92 34 38
9 53 15 35 15 -16 0 -57 -8 -90 -17z"/>
<path d="M3548 2543 c6 -2 18 -2 25 0 6 3 1 5 -13 5 -14 0 -19 -2 -12 -5z"/>
<path d="M3598 2533 c7 -3 16 -2 19 1 4 3 -2 6 -13 5 -11 0 -14 -3 -6 -6z"/>
<path d="M1653 2509 c11 -7 23 -7 35 0 14 9 11 10 -18 10 -29 0 -32 -1 -17
-10z"/>
<path d="M1733 2513 c9 -2 23 -2 30 0 6 3 -1 5 -18 5 -16 0 -22 -2 -12 -5z"/>
<path d="M3671 2516 c10 -9 89 -46 89 -41 0 5 -75 45 -86 45 -4 0 -5 -2 -3 -4z"/>
<path d="M1828 2503 c7 -3 16 -2 19 1 4 3 -2 6 -13 5 -11 0 -14 -3 -6 -6z"/>
<path d="M1918 2494 c10 -5 8 -9 -8 -18 -13 -6 -22 -15 -21 -20 2 -5 -3 -13
-11 -18 -9 -7 -6 -8 10 -4 70 19 69 19 42 2 -29 -18 -23 -20 14 -6 14 5 25 6
25 2 -4 -23 6 -31 51 -42 47 -11 52 -11 69 9 10 12 22 21 26 21 4 0 18 11 31
25 13 14 34 30 46 35 18 7 9 9 -38 9 -33 1 -103 3 -155 6 -52 3 -88 2 -81 -1z
m42 -24 c11 -7 4 -10 -25 -9 -31 0 -36 2 -20 9 26 11 28 11 45 0z"/>
<path d="M1826 2461 c-19 -7 -18 -8 4 -14 13 -3 26 -4 29 -2 2 3 -2 5 -10 5
-11 0 -11 2 1 10 18 11 3 12 -24 1z"/>
<path d="M3770 2467 c0 -2 15 -14 33 -27 20 -15 27 -17 18 -6 -13 16 -51 41
-51 33z"/>
<path d="M3386 2395 c-3 -8 -1 -15 4 -15 6 0 10 5 10 10 0 6 10 8 23 5 12 -3
45 -7 72 -9 28 -2 68 -7 90 -11 22 -4 37 -5 34 -1 -9 9 -153 35 -195 36 -19 0
-34 -6 -38 -15z"/>
<path d="M3290 2390 c-21 -7 -21 -8 -5 -9 11 0 27 4 35 9 18 11 5 11 -30 0z"/>
<path d="M3348 2393 c7 -3 16 -2 19 1 4 3 -2 6 -13 5 -11 0 -14 -3 -6 -6z"/>
<path d="M3225 2370 c-13 -6 -15 -9 -5 -9 8 0 22 4 30 9 18 12 2 12 -25 0z"/>
<path d="M1874 2198 l-19 -23 23 19 c21 18 27 26 19 26 -2 0 -12 -10 -23 -22z"/>
<path d="M1776 2182 c13 -9 25 -52 14 -52 -4 0 -10 -16 -12 -35 -3 -29 -1 -35
14 -35 16 0 23 11 19 33 -1 4 6 15 14 24 13 12 13 18 3 31 -11 13 -10 15 5 9
21 -8 22 -3 1 17 -8 9 -27 16 -42 16 -15 0 -22 -4 -16 -8z"/>
<path d="M2500 2099 c-36 -23 -101 -65 -145 -94 -44 -29 -114 -74 -155 -100
-130 -84 -253 -181 -326 -257 -81 -86 -138 -164 -129 -178 3 -6 36 -9 73 -8
50 1 56 2 24 5 -43 4 -43 5 -36 36 8 40 13 49 24 42 12 -8 33 33 24 47 -4 7
-3 8 5 4 6 -4 14 0 17 8 3 9 11 13 17 9 5 -3 7 -2 4 4 -3 5 5 22 19 38 13 15
24 25 24 21 0 -4 17 9 38 28 20 19 51 45 67 57 17 13 36 29 43 36 7 7 17 13
21 13 5 0 24 15 43 33 39 36 113 87 127 87 6 0 14 6 18 14 4 7 34 27 65 44 32
16 70 40 87 51 16 12 34 21 40 21 6 0 11 5 11 10 0 6 6 10 14 10 7 0 19 7 27
16 12 14 14 14 25 0 10 -14 12 -12 16 14 3 17 0 30 -6 30 -6 0 -40 -19 -76
-41z"/>
<path d="M3330 2104 c0 -7 -9 -14 -20 -17 -11 -3 -20 0 -20 6 0 7 -3 7 -9 2
-5 -6 -7 -22 -4 -37 l5 -28 31 22 c25 18 30 19 24 5 -4 -11 -1 -17 8 -17 8 0
15 5 15 10 0 6 11 10 24 10 14 0 28 -4 31 -10 15 -24 24 -7 10 20 -13 25 -20
29 -48 26 -17 -2 -35 1 -39 8 -6 8 -8 8 -8 0z"/>
<path d="M240 2096 c0 -2 8 -10 18 -17 15 -13 16 -12 3 4 -13 16 -21 21 -21
13z"/>
<path d="M1665 2051 c-30 -6 -36 -18 -15 -31 8 -5 8 -14 1 -33 l-11 -27 -624
2 c-343 2 -622 0 -619 -4 5 -10 1170 -11 1265 -2 56 6 68 10 79 31 10 19 10
26 1 32 -7 4 -10 15 -6 24 7 18 -13 21 -71 8z"/>
<path d="M2561 2044 c0 -11 3 -14 6 -6 3 7 2 16 -1 19 -3 4 -6 -2 -5 -13z"/>
<path d="M335 2010 c21 -22 41 -40 44 -40 3 0 -13 18 -34 40 -21 22 -41 40
-44 40 -3 0 13 -18 34 -40z"/>
<path d="M3716 2031 c-3 -3 -1 -31 4 -61 4 -30 8 -47 9 -37 0 10 5 15 11 12
18 -11 50 -14 50 -4 0 5 7 9 16 9 9 0 14 -6 11 -13 -3 -9 4 -12 24 -11 20 1
30 -3 35 -18 3 -11 8 -18 10 -15 3 2 -4 24 -15 48 -19 44 -66 97 -76 87 -4 -3
-22 -2 -41 2 -19 4 -36 5 -38 1z"/>
<path d="M2551 1994 c0 -11 3 -14 6 -6 3 7 2 16 -1 19 -3 4 -6 -2 -5 -13z"/>
<path d="M3045 1939 c-27 -15 -57 -28 -66 -28 -19 -1 -32 -27 -23 -43 5 -7 12
-4 21 7 7 11 13 15 13 11 0 -5 7 -3 15 4 8 7 15 9 15 5 0 -5 9 0 19 9 11 10
24 15 30 12 5 -4 13 -1 17 6 5 8 10 6 15 -8 6 -15 8 -12 8 13 1 17 -2 33 -6
36 -5 2 -30 -9 -58 -24z"/>
<path d="M2541 1944 c0 -11 3 -14 6 -6 3 7 2 16 -1 19 -3 4 -6 -2 -5 -13z"/>
<path d="M2516 1860 c-4 -25 -14 -55 -22 -67 -12 -19 -12 -22 0 -17 15 6 41
95 34 116 -3 7 -8 -7 -12 -32z"/>
<path d="M258 1798 c-2 -7 -1 -44 2 -83 4 -38 8 -60 8 -48 2 16 7 20 22 16 11
-3 27 0 35 7 8 7 15 9 15 4 0 -5 28 -10 63 -11 34 -1 69 -3 77 -4 8 0 25 2 38
6 18 6 22 4 22 -16 0 -12 2 -20 5 -17 7 7 -6 123 -15 138 -11 18 -266 25 -272
8z"/>
<path d="M803 1788 c-30 -10 -33 -14 -33 -54 0 -50 9 -55 100 -53 101 3 100 3
100 -38 0 -20 3 -34 6 -31 9 9 -8 178 -17 172 -5 -3 -9 0 -9 5 0 6 -7 11 -16
11 -9 0 -12 -5 -8 -12 5 -8 2 -9 -12 -4 -34 14 -78 15 -111 4z"/>
<path d="M2280 1770 c-9 -6 -10 -10 -3 -10 6 0 15 5 18 10 8 12 4 12 -15 0z"/>
<path d="M2360 1709 c-58 -33 -120 -70 -137 -81 -27 -16 -32 -17 -27 -4 3 9
11 16 18 16 8 0 8 2 0 8 -6 4 -13 17 -16 29 -5 20 -4 21 14 12 11 -6 22 -8 26
-5 3 3 1 6 -5 6 -5 0 -10 6 -10 14 0 8 6 12 14 9 9 -4 11 0 7 11 -8 21 -8 21
-52 -11 -100 -74 -191 -164 -204 -204 -2 -6 -26 -17 -53 -24 -32 -9 -41 -14
-25 -14 28 -1 239 99 323 152 29 18 94 57 145 86 77 44 104 62 90 61 -2 0 -50
-28 -108 -61z"/>
<path d="M1118 1753 c-29 -4 -33 -10 -20 -29 9 -13 42 -26 42 -16 0 12 84 1
93 -12 5 -6 5 0 2 14 -4 14 -10 28 -14 32 -9 9 -71 16 -103 11z"/>
<path d="M3721 1744 c0 -11 3 -14 6 -6 3 7 2 16 -1 19 -3 4 -6 -2 -5 -13z"/>
<path d="M3711 1674 c0 -11 3 -14 6 -6 3 7 2 16 -1 19 -3 4 -6 -2 -5 -13z"/>
<path d="M272 1610 c0 -14 2 -19 5 -12 2 6 2 18 0 25 -3 6 -5 1 -5 -13z"/>
<path d="M552 1600 c0 -14 2 -19 5 -12 2 6 2 18 0 25 -3 6 -5 1 -5 -13z"/>
<path d="M771 1604 c0 -11 3 -14 6 -6 3 7 2 16 -1 19 -3 4 -6 -2 -5 -13z"/>
<path d="M3871 1574 c0 -11 3 -14 6 -6 3 7 2 16 -1 19 -3 4 -6 -2 -5 -13z"/>
<path d="M981 1544 c0 -11 3 -14 6 -6 3 7 2 16 -1 19 -3 4 -6 -2 -5 -13z"/>
<path d="M561 1534 c0 -11 3 -14 6 -6 3 7 2 16 -1 19 -3 4 -6 -2 -5 -13z"/>
<path d="M3863 1538 c3 -10 3 -18 -2 -18 -4 0 -13 -19 -20 -42 -12 -37 -49
-113 -111 -223 -101 -179 -370 -437 -585 -559 -58 -33 -70 -43 -51 -43 16 0
23 4 19 11 -4 6 -1 6 9 -1 12 -11 21 -10 46 2 26 13 34 14 51 3 12 -7 21 -17
21 -21 0 -5 7 -6 16 -3 29 11 -2 -19 -62 -60 -29 -20 -52 -39 -50 -41 2 -3 23
9 46 26 34 25 46 28 62 20 11 -6 22 -8 26 -5 3 3 0 6 -6 6 -19 0 -14 16 14 50
19 22 30 28 39 20 6 -5 15 -7 18 -4 3 3 11 3 17 -1 8 -5 6 -13 -6 -26 -9 -10
-20 -19 -24 -19 -4 0 -25 -16 -46 -35 -45 -41 -154 -122 -157 -116 -1 2 -14
-6 -28 -19 -33 -30 -79 -36 -79 -10 0 10 -10 20 -22 23 -22 6 -22 5 -4 -8 10
-7 15 -19 11 -24 -3 -6 1 -14 9 -17 9 -3 13 -11 10 -16 -19 -30 161 92 273
186 94 78 207 193 262 266 34 47 34 46 -86 -87 -36 -40 -70 -70 -76 -66 -5 3
-7 1 -4 -4 4 -6 1 -16 -7 -22 -10 -9 -16 -8 -26 4 -7 8 -17 12 -23 8 -6 -4 -7
-1 -3 6 5 7 15 10 23 7 10 -4 13 -2 10 8 -3 8 3 22 14 32 17 16 22 16 30 4 8
-11 8 -8 3 10 -6 22 -5 23 10 11 14 -12 16 -12 10 2 -4 10 7 28 29 51 19 19
37 33 39 30 3 -2 11 8 19 24 24 46 40 56 65 39 7 -4 18 1 25 11 12 15 12 16
-2 5 -16 -13 -29 -8 -29 11 0 6 15 28 33 48 72 82 91 111 80 122 -3 3 2 6 11
6 12 0 16 -5 12 -15 -8 -23 0 -18 18 10 14 21 14 29 5 48 -11 19 -10 20 2 10
12 -10 17 -8 27 8 7 10 8 19 3 19 -5 0 -12 -6 -14 -12 -3 -7 -5 -1 -4 15 1 26
27 40 27 15 1 -7 7 2 16 21 10 25 11 36 3 41 -7 5 -4 9 8 12 14 4 26 29 46 94
39 130 42 157 21 175 -16 12 -17 12 -11 -3z m-73 -303 c0 -8 -4 -15 -10 -15
-5 0 -7 7 -4 15 4 8 8 15 10 15 2 0 4 -7 4 -15z m-50 -113 c0 -13 -12 -22 -22
-16 -10 6 -1 24 13 24 5 0 9 -4 9 -8z"/>
<path d="M2869 1363 c-13 -16 -12 -17 4 -4 16 13 21 21 13 21 -2 0 -10 -8 -17
-17z"/>
<path d="M370 1265 c0 -5 5 -17 10 -25 5 -8 10 -10 10 -5 0 6 -5 17 -10 25 -5
8 -10 11 -10 5z"/>
<path d="M2018 1233 c7 -3 16 -2 19 1 4 3 -2 6 -13 5 -11 0 -14 -3 -6 -6z"/>
<path d="M2178 1233 c7 -3 16 -2 19 1 4 3 -2 6 -13 5 -11 0 -14 -3 -6 -6z"/>
<path d="M3469 1193 c-13 -16 -12 -17 4 -4 16 13 21 21 13 21 -2 0 -10 -8 -17
-17z"/>
<path d="M3394 1108 l-29 -33 33 29 c17 17 32 31 32 33 0 8 -8 1 -36 -29z"/>
<path d="M471 1065 c12 -22 26 -44 32 -50 15 -16 -20 48 -38 70 -9 11 -7 2 6
-20z"/>
<path d="M3269 993 c-13 -16 -12 -17 4 -4 16 13 21 21 13 21 -2 0 -10 -8 -17
-17z"/>
<path d="M3653 985 c-6 -14 -7 -23 -2 -19 13 8 31 44 22 44 -4 0 -13 -11 -20
-25z"/>
<path d="M2158 953 c7 -3 16 -2 19 1 4 3 -2 6 -13 5 -11 0 -14 -3 -6 -6z"/>
<path d="M2318 953 c7 -3 16 -2 19 1 4 3 -2 6 -13 5 -11 0 -14 -3 -6 -6z"/>
<path d="M3616 938 c3 -5 10 -6 15 -3 13 9 11 12 -6 12 -8 0 -12 -4 -9 -9z"/>
<path d="M550 936 c0 -2 8 -10 18 -17 15 -13 16 -12 3 4 -13 16 -21 21 -21 13z"/>
<path d="M1250 926 c0 -2 8 -10 18 -17 15 -13 16 -12 3 4 -13 16 -21 21 -21
13z"/>
<path d="M623 842 c59 -76 208 -232 221 -232 6 1 2 8 -9 18 -11 9 -30 30 -43
46 -12 16 -22 26 -22 22 0 -9 -65 60 -127 137 -68 82 -81 89 -20 9z"/>
<path d="M686 867 c3 -10 9 -15 12 -12 3 3 0 11 -7 18 -10 9 -11 8 -5 -6z"/>
<path d="M1300 867 c0 -2 15 -16 33 -33 l32 -29 -29 33 c-28 30 -36 37 -36 29z"/>
<path d="M1450 845 c13 -14 26 -25 28 -25 3 0 -5 11 -18 25 -13 14 -26 25 -28
25 -3 0 5 -11 18 -25z"/>
<path d="M1165 780 c10 -11 20 -20 23 -20 3 0 -3 9 -13 20 -10 11 -20 20 -23
20 -3 0 3 -9 13 -20z"/>
<path d="M1010 705 c35 -36 67 -65 69 -65 3 0 -24 29 -59 65 -35 36 -67 65
-69 65 -3 0 24 -29 59 -65z"/>
<path d="M1530 766 c0 -2 8 -10 18 -17 15 -13 16 -12 3 4 -13 16 -21 21 -21
13z"/>
<path d="M1470 695 c13 -14 26 -25 28 -25 3 0 -5 11 -18 25 -13 14 -26 25 -28
25 -3 0 5 -11 18 -25z"/>
<path d="M1270 668 c24 -27 45 -48 47 -48 8 0 0 9 -44 50 l-48 45 45 -47z"/>
<path d="M830 696 c0 -2 7 -7 16 -10 8 -3 12 -2 9 4 -6 10 -25 14 -25 6z"/>
<path d="M895 640 c10 -11 20 -20 23 -20 3 0 -3 9 -13 20 -10 11 -20 20 -23
20 -3 0 3 -9 13 -20z"/>
<path d="M2418 643 c7 -3 16 -2 19 1 4 3 -2 6 -13 5 -11 0 -14 -3 -6 -6z"/>
<path d="M863 625 c0 -7 6 -11 14 -8 7 3 13 6 13 8 0 2 -6 5 -13 8 -8 3 -14
-1 -14 -8z"/>
<path d="M874 581 c10 -11 25 -17 34 -14 9 4 13 2 9 -4 -4 -6 11 -26 33 -43
22 -17 40 -27 40 -21 0 6 7 11 16 11 13 0 14 -3 5 -14 -9 -10 -2 -19 31 -42
24 -15 49 -33 57 -38 11 -9 13 -7 7 12 -5 13 -3 22 3 22 6 0 10 -3 10 -7 -1
-5 -1 -16 0 -27 1 -15 3 -16 16 -6 13 11 13 15 3 22 -8 6 -4 7 12 2 23 -6 24
-5 11 10 -26 31 -122 72 -105 44 3 -4 10 -6 15 -2 5 3 17 0 26 -8 14 -12 13
-14 -13 -18 -32 -6 -59 12 -50 35 3 8 1 17 -5 20 -5 4 -6 11 -3 17 4 6 -3 4
-17 -5 -25 -18 -44 -22 -35 -8 8 12 -18 32 -35 29 -8 -2 -13 2 -12 8 1 7 -7
20 -18 30 -19 17 -20 17 -14 -2 6 -18 6 -18 -8 -1 -8 9 -18 17 -22 17 -5 0 0
-9 9 -19z m91 -51 c3 -6 -1 -7 -9 -4 -18 7 -21 14 -7 14 6 0 13 -4 16 -10z"/>
<path d="M1375 570 c10 -11 20 -20 23 -20 3 0 -3 9 -13 20 -10 11 -20 20 -23
20 -3 0 3 -9 13 -20z"/>
<path d="M1420 536 c0 -2 8 -10 18 -17 15 -13 16 -12 3 4 -13 16 -21 21 -21
13z"/>
<path d="M3097 521 c-36 -24 -46 -34 -23 -25 12 5 17 4 13 -3 -3 -5 0 -10 8
-10 8 0 15 4 15 9 0 4 -5 8 -11 8 -6 0 -1 9 12 20 29 24 23 24 -14 1z"/>
<path d="M1220 526 c0 -2 8 -10 18 -17 15 -13 16 -12 3 4 -13 16 -21 21 -21
13z"/>
<path d="M2148 483 c7 -3 16 -2 19 1 4 3 -2 6 -13 5 -11 0 -14 -3 -6 -6z"/>
<path d="M2518 483 c7 -3 16 -2 19 1 4 3 -2 6 -13 5 -11 0 -14 -3 -6 -6z"/>
<path d="M3021 476 l-24 -13 25 0 c14 0 25 5 25 13 0 8 -1 14 -1 14 -1 -1 -12
-7 -25 -14z"/>
<path d="M2243 473 c9 -2 25 -2 35 0 9 3 1 5 -18 5 -19 0 -27 -2 -17 -5z"/>
<path d="M2388 473 c12 -2 32 -2 45 0 12 2 2 4 -23 4 -25 0 -35 -2 -22 -4z"/>
<path d="M1330 446 c0 -3 9 -10 20 -16 11 -6 20 -8 20 -6 0 3 -9 10 -20 16
-11 6 -20 8 -20 6z"/>
<path d="M2935 435 c-16 -7 -24 -14 -17 -14 7 -1 10 -6 6 -13 -4 -7 -3 -8 5
-4 6 4 9 11 6 16 -3 5 7 10 22 12 16 2 24 6 18 10 -5 3 -23 0 -40 -7z"/>
<path d="M1159 411 l-23 -18 33 -18 c18 -9 30 -12 27 -6 -4 5 3 15 16 22 21
11 21 12 3 25 -24 18 -28 18 -56 -5z m46 -1 c3 -6 -1 -7 -9 -4 -18 7 -21 14
-7 14 6 0 13 -4 16 -10z m-25 -20 c8 -5 11 -10 5 -10 -5 0 -17 5 -25 10 -8 5
-10 10 -5 10 6 0 17 -5 25 -10z"/>
<path d="M2830 395 c-19 -7 -28 -14 -20 -14 8 0 29 6 45 14 39 17 21 18 -25 0z"/>
<path d="M1410 396 c0 -3 9 -10 20 -16 11 -6 20 -8 20 -6 0 3 -9 10 -20 16
-11 6 -20 8 -20 6z"/>
<path d="M1245 380 c27 -12 43 -12 25 0 -8 5 -22 9 -30 9 -10 0 -8 -3 5 -9z"/>
<path d="M2968 359 c-21 -11 -38 -22 -38 -24 0 -3 18 4 40 15 22 11 40 23 40
25 0 7 0 7 -42 -16z"/>
<path d="M1237 357 c4 -6 0 -8 -10 -4 -10 3 -17 4 -17 2 0 -8 122 -67 127 -62
2 3 -19 15 -47 28 -39 18 -47 25 -34 29 16 6 15 7 -4 12 -14 4 -20 2 -15 -5z"/>
<path d="M1478 350 c12 -11 22 -25 22 -29 0 -5 12 -12 26 -15 21 -6 24 -9 14
-21 -16 -19 -30 -19 -45 1 -10 15 -12 14 -10 -7 1 -19 7 -24 26 -22 13 1 18 0
10 -4 -10 -4 -8 -9 10 -20 l24 -14 -25 6 c-19 5 -22 4 -10 -4 8 -6 29 -8 45
-5 20 3 25 2 17 -4 -10 -7 -5 -11 18 -16 18 -3 36 -3 41 0 5 3 9 0 9 -6 0 -8
9 -10 26 -6 14 4 23 3 20 -2 -6 -11 124 -30 284 -42 136 -11 381 9 500 40 41
11 58 17 37 14 -22 -3 -37 -2 -34 3 3 4 -68 8 -156 9 -155 1 -258 16 -402 58
-11 4 -2 -3 20 -15 24 -12 30 -18 15 -14 -14 4 -32 7 -40 7 -8 0 -19 4 -25 8
-5 3 -35 5 -65 4 -77 -3 -169 21 -280 73 -65 30 -88 37 -72 23z"/>
<path d="M2098 353 c7 -3 16 -2 19 1 4 3 -2 6 -13 5 -11 0 -14 -3 -6 -6z"/>
<path d="M2700 350 c20 -13 43 -13 35 0 -3 6 -16 10 -28 10 -18 0 -19 -2 -7
-10z"/>
<path d="M2138 343 c7 -3 16 -2 19 1 4 3 -2 6 -13 5 -11 0 -14 -3 -6 -6z"/>
<path d="M2648 343 c6 -2 18 -2 25 0 6 3 1 5 -13 5 -14 0 -19 -2 -12 -5z"/>
<path d="M2578 333 c6 -2 18 -2 25 0 6 3 1 5 -13 5 -14 0 -19 -2 -12 -5z"/>
<path d="M2900 330 c0 -5 -6 -10 -14 -10 -8 0 -17 -4 -21 -10 -3 -5 7 -5 25 1
28 10 42 29 20 29 -5 0 -10 -4 -10 -10z"/>
<path d="M2283 323 c9 -2 25 -2 35 0 9 3 1 5 -18 5 -19 0 -27 -2 -17 -5z"/>
<path d="M2493 323 c15 -2 37 -2 50 0 12 2 0 4 -28 4 -27 0 -38 -2 -22 -4z"/>
<path d="M1398 303 c7 -3 16 -2 19 1 4 3 -2 6 -13 5 -11 0 -14 -3 -6 -6z"/>
<path d="M1810 300 c8 -5 20 -10 25 -10 6 0 3 5 -5 10 -8 5 -19 10 -25 10 -5
0 -3 -5 5 -10z"/>
<path d="M1356 291 c-3 -5 8 -14 26 -20 l32 -11 -21 20 c-25 22 -29 24 -37 11z"/>
<path d="M2810 288 c0 -11 12 -10 30 2 12 7 10 9 -8 7 -12 0 -22 -5 -22 -9z"/>
<path d="M1860 280 c8 -5 22 -9 30 -9 10 0 8 3 -5 9 -27 12 -43 12 -25 0z"/>
<path d="M2763 273 c-13 -2 -23 -8 -23 -13 0 -5 14 -4 30 1 27 10 42 21 23 18
-5 -1 -18 -4 -30 -6z"/>
<path d="M1465 240 c27 -12 43 -12 25 0 -8 5 -22 9 -30 9 -10 0 -8 -3 5 -9z"/>
<path d="M2675 240 c-4 -7 3 -8 22 -4 38 9 42 14 10 14 -14 0 -29 -5 -32 -10z"/>
<path d="M2568 203 c7 -3 16 -2 19 1 4 3 -2 6 -13 5 -11 0 -14 -3 -6 -6z"/>
</g>
</svg>
